<svg width="235" height="73" viewBox="0 0 235 73" fill="none" xmlns="http://www.w3.org/2000/svg">
<g id="Group 270">
<g id="Group 275">
<path id="Get access to exclusive offers" d="M52.716 23.54C50.364 23.54 48.516 25.304 48.516 27.812C48.516 30.32 50.364 32.072 52.716 32.072C54.984 32.072 56.628 30.404 56.82 28.328V27.488H52.32V28.376H55.656C55.488 30.032 54.36 31.088 52.716 31.088C50.952 31.088 49.632 29.816 49.632 27.812C49.632 25.796 50.952 24.524 52.716 24.524C53.892 24.524 54.804 25.088 55.26 26.06H56.568C55.944 24.452 54.48 23.54 52.716 23.54ZM61.0598 26.24C62.1878 26.24 63.1478 26.948 63.1358 28.232H58.9838C59.1038 26.948 59.9918 26.24 61.0598 26.24ZM64.1318 29.972H62.9558C62.7158 30.68 62.0918 31.184 61.1078 31.184C59.9918 31.184 59.0558 30.452 58.9718 29.12H64.2278C64.2518 28.892 64.2638 28.7 64.2638 28.46C64.2638 26.66 63.0158 25.316 61.1078 25.316C59.1878 25.316 57.8558 26.624 57.8558 28.7C57.8558 30.788 59.2358 32.108 61.1078 32.108C62.7398 32.108 63.7958 31.172 64.1318 29.972ZM65.9453 30.2C65.9453 31.52 66.6053 32 67.7693 32H68.7533V31.076H67.9492C67.2773 31.076 67.0373 30.848 67.0373 30.2V26.324H68.7533V25.424H67.0373V23.768H65.9453V25.424H65.0933V26.324H65.9453V30.2ZM72.8676 28.688C72.8676 30.728 74.2236 32.108 75.9756 32.108C77.1876 32.108 78.0396 31.484 78.4356 30.776V32H79.5396V25.424H78.4356V26.624C78.0516 25.94 77.2116 25.316 75.9876 25.316C74.2236 25.316 72.8676 26.636 72.8676 28.688ZM78.4356 28.7C78.4356 30.248 77.4036 31.148 76.2036 31.148C75.0036 31.148 73.9836 30.236 73.9836 28.688C73.9836 27.14 75.0036 26.264 76.2036 26.264C77.4036 26.264 78.4356 27.176 78.4356 28.7ZM80.9769 28.7C80.9769 30.788 82.3089 32.108 84.1809 32.108C85.8129 32.108 86.8809 31.196 87.2169 29.888H86.0409C85.8009 30.716 85.1529 31.184 84.1809 31.184C82.9809 31.184 82.0929 30.332 82.0929 28.7C82.0929 27.092 82.9809 26.24 84.1809 26.24C85.1529 26.24 85.8129 26.744 86.0409 27.536H87.2169C86.8809 26.156 85.8129 25.316 84.1809 25.316C82.3089 25.316 80.9769 26.636 80.9769 28.7ZM88.266 28.7C88.266 30.788 89.598 32.108 91.47 32.108C93.102 32.108 94.17 31.196 94.506 29.888H93.33C93.09 30.716 92.442 31.184 91.47 31.184C90.27 31.184 89.382 30.332 89.382 28.7C89.382 27.092 90.27 26.24 91.47 26.24C92.442 26.24 93.102 26.744 93.33 27.536H94.506C94.17 26.156 93.102 25.316 91.47 25.316C89.598 25.316 88.266 26.636 88.266 28.7ZM98.7591 26.24C99.8871 26.24 100.847 26.948 100.835 28.232H96.6831C96.8031 26.948 97.6911 26.24 98.7591 26.24ZM101.831 29.972H100.655C100.415 30.68 99.7911 31.184 98.8071 31.184C97.6911 31.184 96.7551 30.452 96.6711 29.12H101.927C101.951 28.892 101.963 28.7 101.963 28.46C101.963 26.66 100.715 25.316 98.8071 25.316C96.8871 25.316 95.5551 26.624 95.5551 28.7C95.5551 30.788 96.9351 32.108 98.8071 32.108C100.439 32.108 101.495 31.172 101.831 29.972ZM108.132 30.212C108.084 27.86 104.268 28.712 104.268 27.152C104.268 26.624 104.748 26.24 105.552 26.24C106.428 26.24 106.932 26.72 106.98 27.38H108.072C108 26.096 107.04 25.316 105.588 25.316C104.124 25.316 103.176 26.144 103.176 27.152C103.176 29.6 107.064 28.748 107.064 30.212C107.064 30.752 106.584 31.184 105.72 31.184C104.796 31.184 104.232 30.704 104.172 30.068H103.044C103.116 31.268 104.196 32.108 105.732 32.108C107.184 32.108 108.132 31.292 108.132 30.212ZM114.402 30.212C114.354 27.86 110.538 28.712 110.538 27.152C110.538 26.624 111.018 26.24 111.822 26.24C112.698 26.24 113.202 26.72 113.25 27.38H114.342C114.27 26.096 113.31 25.316 111.858 25.316C110.394 25.316 109.446 26.144 109.446 27.152C109.446 29.6 113.334 28.748 113.334 30.212C113.334 30.752 112.854 31.184 111.99 31.184C111.066 31.184 110.502 30.704 110.442 30.068H109.314C109.386 31.268 110.466 32.108 112.002 32.108C113.454 32.108 114.402 31.292 114.402 30.212ZM119.383 30.2C119.383 31.52 120.043 32 121.207 32H122.191V31.076H121.387C120.715 31.076 120.475 30.848 120.475 30.2V26.324H122.191V25.424H120.475V23.768H119.383V25.424H118.531V26.324H119.383V30.2ZM129.754 28.7C129.754 26.624 128.302 25.316 126.43 25.316C124.57 25.316 123.106 26.624 123.106 28.7C123.106 30.788 124.522 32.108 126.382 32.108C128.254 32.108 129.754 30.788 129.754 28.7ZM124.222 28.7C124.222 27.044 125.266 26.264 126.418 26.264C127.546 26.264 128.638 27.044 128.638 28.7C128.638 30.368 127.522 31.148 126.382 31.148C125.242 31.148 124.222 30.368 124.222 28.7ZM137.185 26.24C138.313 26.24 139.273 26.948 139.261 28.232H135.109C135.229 26.948 136.117 26.24 137.185 26.24ZM140.257 29.972H139.081C138.841 30.68 138.217 31.184 137.233 31.184C136.117 31.184 135.181 30.452 135.097 29.12H140.353C140.377 28.892 140.389 28.7 140.389 28.46C140.389 26.66 139.141 25.316 137.233 25.316C135.313 25.316 133.981 26.624 133.981 28.7C133.981 30.788 135.361 32.108 137.233 32.108C138.865 32.108 139.921 31.172 140.257 29.972ZM145.262 32H146.498L144.374 28.676L146.486 25.424H145.346L143.858 27.86L142.298 25.424H141.062L143.186 28.736L141.062 32H142.202L143.702 29.552L145.262 32ZM147.164 28.7C147.164 30.788 148.496 32.108 150.368 32.108C152 32.108 153.068 31.196 153.404 29.888H152.228C151.988 30.716 151.34 31.184 150.368 31.184C149.168 31.184 148.28 30.332 148.28 28.7C148.28 27.092 149.168 26.24 150.368 26.24C151.34 26.24 152 26.744 152.228 27.536H153.404C153.068 26.156 152 25.316 150.368 25.316C148.496 25.316 147.164 26.636 147.164 28.7ZM154.862 32H155.954V23.12H154.862V32ZM163.647 25.424H162.555V29.036C162.555 30.452 161.799 31.148 160.671 31.148C159.567 31.148 158.835 30.464 158.835 29.132V25.424H157.755V29.276C157.755 31.16 158.943 32.096 160.455 32.096C161.331 32.096 162.135 31.712 162.555 31.028V32H163.647V25.424ZM170.218 30.212C170.17 27.86 166.354 28.712 166.354 27.152C166.354 26.624 166.834 26.24 167.638 26.24C168.514 26.24 169.018 26.72 169.066 27.38H170.158C170.086 26.096 169.126 25.316 167.674 25.316C166.21 25.316 165.262 26.144 165.262 27.152C165.262 29.6 169.15 28.748 169.15 30.212C169.15 30.752 168.67 31.184 167.806 31.184C166.882 31.184 166.318 30.704 166.258 30.068H165.13C165.202 31.268 166.282 32.108 167.818 32.108C169.27 32.108 170.218 31.292 170.218 30.212ZM171.76 32H172.852V25.424H171.76V32ZM172.324 24.356C172.72 24.356 173.044 24.032 173.044 23.612C173.044 23.192 172.72 22.868 172.324 22.868C171.904 22.868 171.58 23.192 171.58 23.612C171.58 24.032 171.904 24.356 172.324 24.356ZM173.933 25.424L176.513 32H177.785L180.365 25.424H179.201L177.161 30.992L175.109 25.424H173.933ZM184.236 26.24C185.364 26.24 186.324 26.948 186.312 28.232H182.16C182.28 26.948 183.168 26.24 184.236 26.24ZM187.308 29.972H186.132C185.892 30.68 185.268 31.184 184.284 31.184C183.168 31.184 182.232 30.452 182.148 29.12H187.404C187.428 28.892 187.44 28.7 187.44 28.46C187.44 26.66 186.192 25.316 184.284 25.316C182.364 25.316 181.032 26.624 181.032 28.7C181.032 30.788 182.412 32.108 184.284 32.108C185.916 32.108 186.972 31.172 187.308 29.972ZM198.32 28.7C198.32 26.624 196.868 25.316 194.996 25.316C193.136 25.316 191.672 26.624 191.672 28.7C191.672 30.788 193.088 32.108 194.948 32.108C196.82 32.108 198.32 30.788 198.32 28.7ZM192.788 28.7C192.788 27.044 193.832 26.264 194.984 26.264C196.112 26.264 197.204 27.044 197.204 28.7C197.204 30.368 196.088 31.148 194.948 31.148C193.808 31.148 192.788 30.368 192.788 28.7ZM199.96 32H201.052V26.324H202.432V25.424H201.052V24.956C201.052 24.104 201.376 23.744 202.36 23.744V22.832C200.68 22.832 199.96 23.492 199.96 24.956V25.424H199.108V26.324H199.96V32ZM203.909 32H205.001V26.324H206.381V25.424H205.001V24.956C205.001 24.104 205.325 23.744 206.309 23.744V22.832C204.629 22.832 203.909 23.492 203.909 24.956V25.424H203.057V26.324H203.909V32ZM210.45 26.24C211.578 26.24 212.538 26.948 212.526 28.232H208.374C208.494 26.948 209.382 26.24 210.45 26.24ZM213.522 29.972H212.346C212.106 30.68 211.482 31.184 210.498 31.184C209.382 31.184 208.446 30.452 208.362 29.12H213.618C213.642 28.892 213.654 28.7 213.654 28.46C213.654 26.66 212.406 25.316 210.498 25.316C208.578 25.316 207.246 26.624 207.246 28.7C207.246 30.788 208.626 32.108 210.498 32.108C212.13 32.108 213.186 31.172 213.522 29.972ZM216.188 28.424C216.188 26.9 216.98 26.432 218.024 26.432H218.312V25.304C217.268 25.304 216.56 25.76 216.188 26.492V25.424H215.096V32H216.188V28.424ZM224.3 30.212C224.252 27.86 220.436 28.712 220.436 27.152C220.436 26.624 220.916 26.24 221.72 26.24C222.596 26.24 223.1 26.72 223.148 27.38H224.24C224.168 26.096 223.208 25.316 221.756 25.316C220.292 25.316 219.344 26.144 219.344 27.152C219.344 29.6 223.232 28.748 223.232 30.212C223.232 30.752 222.752 31.184 221.888 31.184C220.964 31.184 220.4 30.704 220.34 30.068H219.212C219.284 31.268 220.364 32.108 221.9 32.108C223.352 32.108 224.3 31.292 224.3 30.212Z" fill="white"/>
<path id="Download our mobile app" d="M52.382 3.228H48.966V13H52.382C55.504 13 57.534 11.082 57.534 8.128C57.534 5.16 55.504 3.228 52.382 3.228ZM50.926 11.334V4.88H52.312C54.37 4.88 55.532 6.098 55.532 8.128C55.532 10.158 54.37 11.334 52.312 11.334H50.926ZM66.4912 9.122C66.4912 6.672 64.7412 5.118 62.5012 5.118C60.2612 5.118 58.5112 6.672 58.5112 9.122C58.5112 11.558 60.2052 13.126 62.4452 13.126C64.6992 13.126 66.4912 11.558 66.4912 9.122ZM60.4992 9.122C60.4992 7.568 61.4372 6.826 62.4732 6.826C63.5092 6.826 64.4752 7.568 64.4752 9.122C64.4752 10.662 63.4812 11.418 62.4452 11.418C61.3952 11.418 60.4992 10.662 60.4992 9.122ZM69.3429 13H71.4709L72.8849 7.582L74.2989 13H76.4129L78.6809 5.244H76.8049L75.4329 11.138L73.9769 5.244H71.9049L70.4209 11.152L69.0489 5.244H67.0609L69.3429 13ZM85.1734 13H87.1334V8.45C87.1334 6.308 85.8454 5.132 84.0394 5.132C83.0454 5.132 82.2054 5.552 81.7014 6.21V5.244H79.7414V13H81.7014V8.716C81.7014 7.47 82.3874 6.798 83.4514 6.798C84.4874 6.798 85.1734 7.47 85.1734 8.716V13ZM88.9973 13H90.9573V2.64H88.9973V13ZM100.384 9.122C100.384 6.672 98.6337 5.118 96.3937 5.118C94.1537 5.118 92.4037 6.672 92.4037 9.122C92.4037 11.558 94.0977 13.126 96.3377 13.126C98.5917 13.126 100.384 11.558 100.384 9.122ZM94.3917 9.122C94.3917 7.568 95.3297 6.826 96.3657 6.826C97.4017 6.826 98.3677 7.568 98.3677 9.122C98.3677 10.662 97.3737 11.418 96.3377 11.418C95.2877 11.418 94.3917 10.662 94.3917 9.122ZM101.317 9.094C101.317 11.516 102.885 13.126 104.845 13.126C106.077 13.126 106.959 12.538 107.421 11.866V13H109.395V5.244H107.421V6.35C106.959 5.706 106.105 5.118 104.859 5.118C102.885 5.118 101.317 6.672 101.317 9.094ZM107.421 9.122C107.421 10.592 106.441 11.404 105.363 11.404C104.313 11.404 103.319 10.564 103.319 9.094C103.319 7.624 104.313 6.84 105.363 6.84C106.441 6.84 107.421 7.652 107.421 9.122ZM110.806 9.094C110.806 11.516 112.374 13.126 114.348 13.126C115.566 13.126 116.434 12.566 116.896 11.852V13H118.884V2.64H116.896V6.322C116.364 5.594 115.384 5.118 114.362 5.118C112.374 5.118 110.806 6.672 110.806 9.094ZM116.91 9.122C116.91 10.592 115.93 11.404 114.852 11.404C113.802 11.404 112.808 10.564 112.808 9.094C112.808 7.624 113.802 6.84 114.852 6.84C115.93 6.84 116.91 7.652 116.91 9.122ZM131.624 9.122C131.624 6.672 129.874 5.118 127.634 5.118C125.394 5.118 123.644 6.672 123.644 9.122C123.644 11.558 125.338 13.126 127.578 13.126C129.832 13.126 131.624 11.558 131.624 9.122ZM125.632 9.122C125.632 7.568 126.57 6.826 127.606 6.826C128.642 6.826 129.608 7.568 129.608 9.122C129.608 10.662 128.614 11.418 127.578 11.418C126.528 11.418 125.632 10.662 125.632 9.122ZM140.384 5.244H138.41V9.514C138.41 10.76 137.738 11.432 136.674 11.432C135.638 11.432 134.952 10.76 134.952 9.514V5.244H132.992V9.794C132.992 11.922 134.294 13.098 136.1 13.098C137.066 13.098 137.92 12.678 138.41 12.02V13H140.384V5.244ZM144.278 9.136C144.278 7.638 144.978 7.19 146.14 7.19H146.658V5.132C145.58 5.132 144.768 5.65 144.278 6.448V5.244H142.318V13H144.278V9.136ZM162.164 13H164.124V8.45C164.124 6.308 162.808 5.132 160.946 5.132C159.812 5.132 158.79 5.734 158.286 6.616C157.754 5.65 156.76 5.132 155.556 5.132C154.59 5.132 153.764 5.538 153.274 6.182V5.244H151.314V13H153.274V8.716C153.274 7.484 153.96 6.84 155.024 6.84C156.06 6.84 156.746 7.484 156.746 8.716V13H158.706V8.716C158.706 7.484 159.392 6.84 160.442 6.84C161.478 6.84 162.164 7.484 162.164 8.716V13ZM173.474 9.122C173.474 6.672 171.724 5.118 169.484 5.118C167.244 5.118 165.494 6.672 165.494 9.122C165.494 11.558 167.188 13.126 169.428 13.126C171.682 13.126 173.474 11.558 173.474 9.122ZM167.482 9.122C167.482 7.568 168.42 6.826 169.456 6.826C170.492 6.826 171.458 7.568 171.458 9.122C171.458 10.662 170.464 11.418 169.428 11.418C168.378 11.418 167.482 10.662 167.482 9.122ZM176.871 6.378V2.64H174.911V13H176.871V11.894C177.347 12.566 178.215 13.126 179.433 13.126C181.421 13.126 182.975 11.516 182.975 9.094C182.975 6.672 181.421 5.118 179.433 5.118C178.257 5.118 177.347 5.664 176.871 6.378ZM180.973 9.094C180.973 10.564 179.979 11.404 178.915 11.404C177.865 11.404 176.871 10.592 176.871 9.122C176.871 7.652 177.865 6.84 178.915 6.84C179.979 6.84 180.973 7.624 180.973 9.094ZM184.4 13H186.36V5.244H184.4V13ZM185.394 4.32C186.08 4.32 186.598 3.816 186.598 3.172C186.598 2.528 186.08 2.024 185.394 2.024C184.694 2.024 184.19 2.528 184.19 3.172C184.19 3.816 184.694 4.32 185.394 4.32ZM188.296 13H190.256V2.64H188.296V13ZM195.525 6.728C196.533 6.728 197.345 7.372 197.373 8.394H193.691C193.845 7.33 194.587 6.728 195.525 6.728ZM199.207 10.564H197.093C196.841 11.082 196.379 11.502 195.539 11.502C194.559 11.502 193.775 10.858 193.677 9.71H199.347C199.389 9.458 199.403 9.206 199.403 8.954C199.403 6.644 197.821 5.118 195.581 5.118C193.285 5.118 191.689 6.672 191.689 9.122C191.689 11.558 193.327 13.126 195.581 13.126C197.499 13.126 198.787 11.992 199.207 10.564ZM203.665 9.094C203.665 11.516 205.233 13.126 207.193 13.126C208.425 13.126 209.307 12.538 209.769 11.866V13H211.743V5.244H209.769V6.35C209.307 5.706 208.453 5.118 207.207 5.118C205.233 5.118 203.665 6.672 203.665 9.094ZM209.769 9.122C209.769 10.592 208.789 11.404 207.711 11.404C206.661 11.404 205.667 10.564 205.667 9.094C205.667 7.624 206.661 6.84 207.711 6.84C208.789 6.84 209.769 7.652 209.769 9.122ZM215.617 6.364V5.244H213.657V16.696H215.617V11.894C216.093 12.524 216.961 13.126 218.179 13.126C220.167 13.126 221.721 11.516 221.721 9.094C221.721 6.672 220.167 5.118 218.179 5.118C216.975 5.118 216.079 5.706 215.617 6.364ZM219.719 9.094C219.719 10.564 218.725 11.404 217.661 11.404C216.611 11.404 215.617 10.592 215.617 9.122C215.617 7.652 216.611 6.84 217.661 6.84C218.725 6.84 219.719 7.624 219.719 9.094ZM225.106 6.364V5.244H223.146V16.696H225.106V11.894C225.582 12.524 226.45 13.126 227.668 13.126C229.656 13.126 231.21 11.516 231.21 9.094C231.21 6.672 229.656 5.118 227.668 5.118C226.464 5.118 225.568 5.706 225.106 6.364ZM229.208 9.094C229.208 10.564 228.214 11.404 227.15 11.404C226.1 11.404 225.106 10.592 225.106 9.122C225.106 7.652 226.1 6.84 227.15 6.84C228.214 6.84 229.208 7.624 229.208 9.094Z" fill="white"/>
</g>
<g id="Group 202">
<rect id="Rectangle 1" width="32" height="32" rx="4" fill="#FFCA05"/>
<g id="Group 201">
<path id="Fill 78" fill-rule="evenodd" clip-rule="evenodd" d="M10.0702 19.5519L23.7888 19.5639C22.5301 18.7232 18.7405 18.3015 16.9291 18.3016C16.4211 18.3017 15.7432 18.3364 15.0056 18.4051C15.0841 17.8556 15.0907 12.3487 15.0128 11.9417C13.7979 12.1542 14.1096 13.4761 14.1092 14.7106C14.1088 15.9702 14.129 17.2452 14.1061 18.503C12.4896 18.7044 10.8018 19.0558 10.0702 19.5519ZM17.3245 13.5702H18.523C18.4794 12.4935 18.4073 11.4585 19.5384 11.333L19.5392 17.9025L18.5418 17.81C18.5121 16.7126 18.5316 15.5849 18.5359 14.4784H17.3244L17.324 17.7449L16.0953 17.7608C16.0946 16.1002 16.0948 14.4396 16.0955 12.779C16.0961 11.4102 15.6826 9.00885 17.3249 9.10381L17.3245 13.5702ZM12.5417 18.1583C13.5471 18.1812 13.3368 17.897 13.3361 16.9738L13.3355 13.4912C12.9555 13.4448 12.6631 13.7055 12.5775 14.0164C12.5019 14.2904 12.5481 17.6868 12.5417 18.1583ZM21.3177 18.1623L21.3141 13.4813C20.263 13.4394 20.5226 14.9039 20.5226 15.7852C20.5225 18.2063 20.3016 18.1591 21.3177 18.1623Z" fill="black"/>
<path id="Stroke 79" fill-rule="evenodd" clip-rule="evenodd" d="M10.0286 19.5519L23.7471 19.5639C22.4885 18.7232 18.6989 18.3015 16.8875 18.3016C16.3795 18.3017 15.7015 18.3364 14.9639 18.4051C15.0424 17.8556 15.0491 12.3487 14.9712 11.9417C13.7563 12.1542 14.068 13.4761 14.0676 14.7106C14.0672 15.9702 14.0874 17.2452 14.0645 18.503C12.448 18.7044 10.7602 19.0558 10.0286 19.5519ZM17.2829 13.5702H18.4813C18.4378 12.4935 18.3657 11.4585 19.4967 11.333L19.4975 17.9025L18.5001 17.81C18.4704 16.7126 18.4899 15.5849 18.4942 14.4784H17.2827L17.2824 17.7449L16.0537 17.7608C16.053 16.1002 16.0531 14.4396 16.0539 12.779C16.0545 11.4102 15.641 9.00885 17.2833 9.10381L17.2829 13.5702ZM12.5001 18.1583C13.5055 18.1812 13.2952 17.897 13.2945 16.9738L13.2939 13.4912C12.9138 13.4448 12.6215 13.7055 12.5358 14.0164C12.4603 14.2904 12.5064 17.6868 12.5001 18.1583ZM21.276 18.1623L21.2725 13.4813C20.2214 13.4394 20.481 14.9039 20.481 15.7852C20.4809 18.2063 20.26 18.1591 21.276 18.1623Z" fill="black" stroke="black" stroke-width="0.216"/>
<path id="Fill 81" fill-rule="evenodd" clip-rule="evenodd" d="M8.46116 22.6738V22.8339H7.1405V20.6993H7.53604V22.6738H8.46116ZM9.09587 22.8339H8.7036V20.6993H9.09587V22.8339ZM11.3809 21.8369V22.5566C11.255 22.6661 11.1248 22.7484 10.9897 22.8034C10.8546 22.8585 10.7146 22.8862 10.5696 22.8862C10.2515 22.8862 9.99375 22.7833 9.79653 22.5773C9.59984 22.3714 9.50122 22.1017 9.50122 21.7677C9.50122 21.4495 9.60039 21.1842 9.79926 20.9718C9.99757 20.7598 10.2438 20.6536 10.5375 20.6536C10.7167 20.6536 10.8714 20.6901 11.0033 20.7636C11.1346 20.8372 11.2436 20.9472 11.3296 21.0938L11.2022 21.1831C11.1357 21.0535 11.054 20.9559 10.957 20.8911C10.8595 20.8263 10.7467 20.7941 10.6192 20.7941C10.4051 20.7941 10.2356 20.8824 10.1103 21.0589C9.98557 21.236 9.92293 21.4768 9.92293 21.7824C9.92293 22.0761 9.98286 22.3044 10.1027 22.4678C10.222 22.6313 10.3893 22.713 10.6029 22.713C10.6862 22.713 10.7636 22.7005 10.8355 22.6749C10.9069 22.6492 10.969 22.6116 11.0213 22.5632V21.8369H11.3809ZM12.215 21.8271V22.8339H11.8194V20.6993H12.215V21.6702H13.1074V20.6993H13.4997V22.8339H13.1074V21.8271H12.215ZM14.3534 22.8339V20.8595H13.7944V20.6993H15.3047V20.8595H14.7457V22.8339H14.3534ZM15.9982 22.8339H15.6059V20.6993H15.9982V22.8339ZM16.5507 22.8339V20.6993H16.913L18.0184 22.1731V20.6993H18.208V22.8339H18.0184L16.7403 21.1336V22.8339H16.5507ZM20.4761 21.8369V22.5566C20.3503 22.6661 20.22 22.7484 20.0849 22.8034C19.9498 22.8585 19.8098 22.8862 19.6648 22.8862C19.3467 22.8862 19.089 22.7833 18.8918 22.5773C18.6951 22.3714 18.5965 22.1017 18.5965 21.7677C18.5965 21.4495 18.6956 21.1842 18.8945 20.9718C19.0928 20.7598 19.3391 20.6536 19.6327 20.6536C19.8119 20.6536 19.9667 20.6901 20.0985 20.7636C20.2298 20.8372 20.3388 20.9472 20.4249 21.0938L20.2974 21.1831C20.2309 21.0535 20.1492 20.9559 20.0522 20.8911C19.9547 20.8263 19.8419 20.7941 19.7144 20.7941C19.5003 20.7941 19.3309 20.8824 19.2056 21.0589C19.0808 21.236 19.0182 21.4768 19.0182 21.7824C19.0182 22.0761 19.0781 22.3044 19.1979 22.4678C19.3173 22.6313 19.4845 22.713 19.6981 22.713C19.7814 22.713 19.8588 22.7005 19.9307 22.6749C20.0021 22.6492 20.0642 22.6116 20.1165 22.5632V21.8369H20.4761ZM21.3102 21.8271V22.8339H20.9147V20.6993H21.3102V21.6702H22.2026V20.6993H22.5949V22.8339H22.2026V21.8271H21.3102ZM23.3184 22.1311H23.9395L23.6284 21.3526L23.3184 22.1311ZM22.8537 22.8339L23.7303 20.6568L24.6418 22.8339H24.2207L23.9984 22.2651H23.2629L23.0428 22.8339H22.8537ZM24.8401 20.6993H25.2356V21.9884C25.2356 22.2395 25.2711 22.4144 25.3413 22.513C25.4116 22.6116 25.5304 22.6607 25.6977 22.6607C25.8644 22.6607 25.9831 22.6116 26.0529 22.513C26.1226 22.4144 26.1575 22.2395 26.1575 21.9884V20.6993H26.3471V22.0603C26.3471 22.3354 26.2844 22.5419 26.1597 22.6797C26.0344 22.8176 25.8464 22.8862 25.5952 22.8862C25.4835 22.8862 25.3762 22.8661 25.2738 22.8258C25.1708 22.7855 25.0864 22.7299 25.0205 22.6596C24.9556 22.5915 24.9093 22.5136 24.8815 22.4259C24.8537 22.3382 24.8401 22.2166 24.8401 22.0603V20.6993ZM26.9175 22.4286C26.9644 22.5179 27.0243 22.5877 27.0973 22.6378C27.1698 22.6879 27.2482 22.713 27.3327 22.713C27.4465 22.713 27.5391 22.677 27.6105 22.6051C27.6819 22.5332 27.7173 22.4411 27.7173 22.3283C27.7173 22.148 27.5582 21.9927 27.2395 21.862L27.2351 21.8603C27.0635 21.7901 26.942 21.7105 26.8707 21.6223C26.7987 21.534 26.7628 21.4223 26.7628 21.2872C26.7628 21.102 26.8243 20.95 26.948 20.8317C27.0711 20.713 27.2308 20.6536 27.4269 20.6536C27.5735 20.6536 27.702 20.6868 27.8121 20.7527C27.9222 20.8187 28.0039 20.9124 28.0573 21.0333L27.9167 21.1276C27.8819 21.0279 27.829 20.951 27.7587 20.8977C27.6884 20.8437 27.6051 20.817 27.5081 20.817C27.4046 20.817 27.3201 20.8502 27.2542 20.9167C27.1883 20.9832 27.1551 21.0698 27.1551 21.1777C27.1551 21.2627 27.1823 21.3346 27.2368 21.3945C27.2907 21.4539 27.3926 21.5155 27.5419 21.5792C27.7767 21.6806 27.932 21.777 28.0066 21.8696C28.0818 21.9622 28.1194 22.081 28.1194 22.2254C28.1194 22.4171 28.0529 22.5751 27.9205 22.6994C27.7881 22.8241 27.6203 22.8862 27.4171 22.8862C27.27 22.8862 27.1436 22.8579 27.0374 22.8018C26.9306 22.7457 26.838 22.6585 26.7595 22.5403L26.9175 22.4286Z" fill="black"/>
<path id="Fill 98" fill-rule="evenodd" clip-rule="evenodd" d="M4.23351 22.844V21.519H3.8584V21.4115H4.87188V21.519H4.49677V22.844H4.23351ZM5.23825 22.844H5.02985V21.3105H5.23825V22.289H5.59363V21.9051H5.80203V22.844H5.59363V22.3701H5.23825V22.844ZM6.09601 22.074C6.09601 22.0038 6.10697 21.9577 6.12892 21.938C6.15303 21.916 6.1991 21.9051 6.27151 21.9051H6.71901V21.9862H6.39874C6.36144 21.9862 6.33511 21.9906 6.32416 22.0016C6.311 22.0125 6.30441 22.0323 6.30441 22.0608V22.2977H6.64444V22.3899H6.30441V22.6882C6.30441 22.7167 6.311 22.7365 6.32416 22.7475C6.33732 22.7584 6.36583 22.7628 6.41408 22.7628H6.72999V22.844H6.23858C6.18594 22.844 6.14866 22.833 6.1267 22.8111C6.10697 22.7891 6.09601 22.7431 6.09601 22.6751V22.074Z" fill="black"/>
</g>
</g>
<g id="Group 268">
<g id="Group">
<g id="Group_2">
<g id="Group 272">
<path id="Vector" d="M78.1607 71.2649H78.1605H2.83858H2.83837C2.28094 71.2655 1.74611 71.0447 1.35149 70.6512C0.956865 70.2576 0.73477 69.7234 0.734043 69.1661L0.734044 50.8357C0.734802 50.2781 0.956834 49.7437 1.3514 49.3496C1.74598 48.9556 2.28085 48.7341 2.83858 48.734C2.83859 48.734 2.83861 48.734 2.83863 48.734H78.1599C78.436 48.734 78.7093 48.7884 78.9643 48.894C79.2193 48.9996 79.451 49.1544 79.6461 49.3495C79.8413 49.5447 79.9961 49.7764 80.1016 50.0313C80.2072 50.2863 80.2615 50.5596 80.2615 50.8355L80.2621 69.1664C80.2621 69.4422 80.2077 69.7152 80.1021 69.97C79.9964 70.2247 79.8416 70.4562 79.6465 70.6511C79.4513 70.846 79.2196 71.0005 78.9647 71.1058C78.7098 71.2112 78.4366 71.2652 78.1607 71.2649Z" stroke="white" stroke-width="0.1"/>
<path id="Vector_2" d="M18.0901 59.8802C18.0727 57.9459 19.6744 57.0048 19.7476 56.961C18.8405 55.6389 17.4346 55.4582 16.9405 55.4438C15.7597 55.3196 14.6142 56.1502 14.0127 56.1502C13.3992 56.1502 12.4729 55.4558 11.4746 55.4762C10.1899 55.496 8.98802 56.2396 8.32887 57.3943C6.96853 59.7488 7.98308 63.2087 9.28638 65.1119C9.93833 66.0445 10.7001 67.0846 11.6973 67.048C12.6728 67.0084 13.0372 66.4268 14.2144 66.4268C15.3809 66.4268 15.723 67.048 16.74 67.0246C17.787 67.0084 18.4461 66.0883 19.0753 65.1479C19.8287 64.0802 20.1312 63.0275 20.1432 62.9735C20.1192 62.9651 18.1105 62.1981 18.0901 59.8802ZM16.1691 54.1919C16.6938 53.5359 17.0528 52.6434 16.9531 51.7378C16.1937 51.7714 15.244 52.2629 14.6971 52.9045C14.2132 53.4699 13.781 54.3965 13.8927 55.268C14.7457 55.3316 15.6216 54.8376 16.1691 54.1919Z" fill="white"/>
<path id="Vector_3" d="M32.2153 66.9028H30.852L30.1052 64.5568H27.5094L26.798 66.9028H25.4707L28.0431 58.9158H29.6315L32.2153 66.9028ZM29.8801 63.5725L29.2047 61.4869C29.1333 61.2739 28.9988 60.7722 28.8019 59.9823H28.7779C28.6986 60.322 28.572 60.8238 28.3985 61.4869L27.7345 63.5725H29.8801ZM38.8177 63.9524C38.8177 64.9319 38.5517 65.7061 38.0193 66.2745C37.5426 66.7804 36.9501 67.0331 36.2435 67.0331C35.4805 67.0331 34.9318 66.7612 34.5986 66.2162V69.2381H33.3187V63.0366C33.3187 62.4214 33.3025 61.7906 33.2713 61.1437H34.3969L34.4683 62.0565H34.4924C34.9192 61.3687 35.5669 61.0248 36.4362 61.0248C37.1158 61.0248 37.6831 61.2931 38.1369 61.8302C38.5902 62.3686 38.8177 63.0756 38.8177 63.9524ZM37.5138 63.9992C37.5138 63.4387 37.3877 62.9766 37.1344 62.6123C36.8576 62.2336 36.486 62.0439 36.0202 62.0439C35.7044 62.0439 35.4175 62.1495 35.1611 62.3578C34.9042 62.5678 34.7361 62.8421 34.6574 63.1818C34.6223 63.3089 34.6024 63.4396 34.598 63.5713V64.5322C34.598 64.9505 34.7265 65.304 34.9834 65.5933C35.2404 65.8814 35.5741 66.026 35.9848 66.026C36.4668 66.026 36.842 65.8393 37.1104 65.469C37.3793 65.0975 37.5138 64.6078 37.5138 63.9992ZM45.4434 63.9524C45.4434 64.9319 45.1775 65.7061 44.645 66.2745C44.1678 66.7804 43.5758 67.0331 42.8687 67.0331C42.1057 67.0331 41.557 66.7612 41.2238 66.2162V69.2381H39.9439V63.0366C39.9439 62.4214 39.9277 61.7906 39.8965 61.1437H41.0221L41.0935 62.0565H41.1175C41.5438 61.3687 42.1915 61.0248 43.0614 61.0248C43.7403 61.0248 44.3076 61.2931 44.7627 61.8302C45.2153 62.3686 45.4434 63.0756 45.4434 63.9524ZM44.1389 63.9992C44.1389 63.4387 44.0123 62.9766 43.7589 62.6123C43.4822 62.2336 43.1118 62.0439 42.6459 62.0439C42.3302 62.0439 42.0432 62.1495 41.7857 62.3578C41.5287 62.5678 41.3613 62.8421 41.2826 63.1818C41.2436 63.3403 41.2226 63.4693 41.2226 63.5713V64.5322C41.2226 64.9505 41.3516 65.304 41.6074 65.5933C41.8643 65.8808 42.1981 66.026 42.6099 66.026C43.0926 66.026 43.4678 65.8393 43.7355 65.469C44.0045 65.0975 44.1389 64.6078 44.1389 63.9992ZM52.8514 64.6624C52.8514 65.3424 52.6137 65.8952 52.1413 66.3219C51.6214 66.7876 50.8956 67.0211 49.9651 67.0211C49.1054 67.0211 48.4163 66.8554 47.8964 66.5235L48.1923 65.457C48.7536 65.7895 49.3702 65.9552 50.0413 65.9552C50.524 65.9552 50.8992 65.8459 51.1669 65.6293C51.4353 65.412 51.5709 65.1215 51.5709 64.759C51.5709 64.4344 51.4587 64.1625 51.2384 63.941C51.0168 63.7202 50.6507 63.5143 50.1362 63.3253C48.7374 62.8037 48.0374 62.0409 48.0374 61.0374C48.0374 60.382 48.2848 59.8455 48.7782 59.426C49.2717 59.0071 49.9261 58.7976 50.7401 58.7976C51.4671 58.7976 52.0728 58.9242 52.5537 59.1769L52.2325 60.22C51.7799 59.9751 51.269 59.8527 50.6975 59.8527C50.246 59.8527 49.8918 59.9637 49.6385 60.1846C49.4254 60.382 49.3173 60.6227 49.3173 60.9084C49.3173 61.2235 49.4404 61.4851 49.6853 61.6904C49.8978 61.8795 50.2857 62.0853 50.8464 62.3062C51.5343 62.5834 52.0398 62.9063 52.3634 63.2772C52.6893 63.6481 52.8514 64.1109 52.8514 64.6624ZM57.0939 62.1039H55.6832V64.9001C55.6832 65.6113 55.9317 65.966 56.43 65.966C56.6587 65.966 56.8484 65.9468 56.9985 65.9066L57.0339 66.8782C56.7818 66.9725 56.4498 67.0199 56.0386 67.0199C55.5331 67.0199 55.1381 66.8656 54.8529 66.5571C54.569 66.2487 54.4261 65.7319 54.4261 65.0045V62.1015H53.5856V61.1413H54.4261V60.0868L55.6832 59.7075V61.1413H57.0939V62.1039ZM63.4465 63.9758C63.4465 64.8611 63.1932 65.5879 62.6877 66.1562C62.1588 66.7414 61.4553 67.0331 60.5782 67.0331C59.7317 67.0331 59.0588 66.7528 58.5569 66.1928C58.055 65.6317 57.8041 64.9247 57.8041 64.0719C57.8041 63.1794 58.0634 62.4484 58.5803 61.8801C59.0984 61.3111 59.796 61.0266 60.673 61.0266C61.5183 61.0266 62.1973 61.3075 62.7111 61.8681C63.2022 62.4118 63.4465 63.114 63.4465 63.9758ZM62.1198 64.0052C62.1198 63.4777 62.0058 63.0252 61.777 62.6465C61.5087 62.1891 61.1245 61.9605 60.6268 61.9605C60.1141 61.9605 59.7209 62.1891 59.4532 62.6465C59.2239 63.0252 59.1098 63.4855 59.1098 64.0292C59.1098 64.5574 59.2239 65.0111 59.4532 65.3886C59.7299 65.8459 60.1159 66.0746 60.616 66.0746C61.1053 66.0746 61.4889 65.8411 61.7662 65.3772C62.0016 64.9895 62.1198 64.534 62.1198 64.0052ZM67.6086 62.269C67.4755 62.2449 67.3404 62.2331 67.2052 62.2336C66.7549 62.2336 66.4067 62.4028 66.1618 62.7437C65.9493 63.0438 65.8424 63.4231 65.8424 63.881V66.9028H64.5625V62.9574C64.5637 62.3528 64.5513 61.7483 64.5253 61.1443H65.6401L65.6869 62.2462H65.7224C65.858 61.8675 66.0705 61.562 66.3623 61.3333C66.6294 61.1335 66.9538 61.0253 67.2874 61.0248C67.4057 61.0248 67.5125 61.0332 67.6074 61.0482L67.6086 62.269ZM73.3327 63.7508C73.3359 63.9453 73.3202 64.1397 73.2858 64.3311H69.4462C69.4606 64.9001 69.6467 65.3358 70.0033 65.6359C70.3268 65.9036 70.7453 66.038 71.2591 66.038C71.8276 66.038 72.3463 65.948 72.8128 65.7661L73.0133 66.6538C72.4682 66.8914 71.8246 67.0097 71.082 67.0097C70.1888 67.0097 69.4876 66.7468 68.9773 66.2223C68.4682 65.6971 68.2131 64.9913 68.2131 64.1073C68.2131 63.2394 68.4502 62.5162 68.9251 61.9395C69.4222 61.3237 70.0939 61.0158 70.9392 61.0158C71.7694 61.0158 72.398 61.3237 72.8248 61.9395C73.1628 62.4274 73.3327 63.0324 73.3327 63.7508ZM72.1122 63.4189C72.1212 63.039 72.0372 62.7119 71.8637 62.4352C71.6421 62.0787 71.3012 61.9011 70.8443 61.9011C70.4259 61.9011 70.0849 62.0745 69.8256 62.4226C69.6125 62.6993 69.4858 63.0318 69.4468 63.4177L72.1122 63.4189Z" fill="white"/>
<path id="Vector_4" d="M27.1425 56.0992C26.7865 56.0992 26.4785 56.0818 26.2222 56.0524V52.191C26.5807 52.1356 26.943 52.1083 27.3058 52.1094C28.7735 52.1094 29.4495 52.8313 29.4495 54.0083C29.4495 55.3658 28.6511 56.0992 27.1425 56.0992ZM27.3574 52.6045C27.1593 52.6045 26.9906 52.6165 26.8507 52.6453V55.5807C26.9263 55.5927 27.0716 55.5981 27.2757 55.5981C28.2375 55.5981 28.785 55.0508 28.785 54.0257C28.785 53.1116 28.2897 52.6045 27.3574 52.6045ZM31.556 56.1287C30.7288 56.1287 30.1927 55.5111 30.1927 54.6727C30.1927 53.7988 30.7402 53.1758 31.6029 53.1758C32.4181 53.1758 32.9662 53.764 32.9662 54.6264C32.9662 55.5111 32.4013 56.1287 31.556 56.1287ZM31.5801 53.6356C31.1256 53.6356 30.8345 54.0605 30.8345 54.6546C30.8345 55.2374 31.1316 55.6623 31.5741 55.6623C32.0165 55.6623 32.3137 55.208 32.3137 54.6426C32.3137 54.0665 32.0225 53.6356 31.5801 53.6356ZM37.6836 53.2341L36.7981 56.0644H36.2212L35.8544 54.8353C35.7632 54.5346 35.6872 54.2296 35.6268 53.9212H35.6148C35.5686 54.2297 35.481 54.5388 35.3879 54.8353L34.9977 56.0644H34.4148L33.5815 53.2341H34.2281L34.5487 54.5796C34.6243 54.9001 34.6879 55.2026 34.7408 55.4883H34.7528C34.799 55.25 34.8746 54.9523 34.9857 54.5856L35.3879 53.2347H35.9006L36.2854 54.5568C36.3785 54.8773 36.4541 55.1918 36.5129 55.4889H36.5297C36.5706 55.1978 36.6348 54.8887 36.7218 54.5568L37.0658 53.2347L37.6836 53.2341ZM40.9433 56.0644H40.3142V54.4392C40.3142 53.9387 40.1221 53.6878 39.7433 53.6878C39.3705 53.6878 39.1141 54.0083 39.1141 54.381V56.0644H38.485V54.0431C38.485 53.7928 38.479 53.5245 38.4616 53.2335H39.0151L39.0445 53.6704H39.0619C39.2312 53.3679 39.5746 53.1758 39.9594 53.1758C40.5537 53.1758 40.9439 53.6302 40.9439 54.3696L40.9433 56.0644ZM42.6783 56.0644H42.0485V51.9353H42.6783V56.0644ZM44.9721 56.1287C44.1454 56.1287 43.6088 55.5111 43.6088 54.6727C43.6088 53.7988 44.1563 53.1758 45.0183 53.1758C45.8342 53.1758 46.3817 53.764 46.3817 54.6264C46.3823 55.5111 45.8168 56.1287 44.9721 56.1287ZM44.9955 53.6356C44.5411 53.6356 44.2499 54.0605 44.2499 54.6546C44.2499 55.2374 44.5477 55.6623 44.9889 55.6623C45.4319 55.6623 45.7285 55.208 45.7285 54.6426C45.7291 54.0665 45.4385 53.6356 44.9955 53.6356ZM48.8622 56.0644L48.8166 55.7385H48.7998C48.6077 56.0008 48.3273 56.1287 47.9719 56.1287C47.4646 56.1287 47.1044 55.7734 47.1044 55.2956C47.1044 54.597 47.7102 54.2357 48.7589 54.2357V54.1835C48.7589 53.8108 48.5614 53.6242 48.1712 53.6242C47.8921 53.6242 47.6471 53.6944 47.4316 53.8342L47.3038 53.4207C47.5655 53.2575 47.8921 53.1758 48.2757 53.1758C49.0153 53.1758 49.3887 53.566 49.3887 54.3468V55.3893C49.3887 55.6749 49.4013 55.8964 49.4295 56.065L48.8622 56.0644ZM48.7757 54.6546C48.077 54.6546 47.7264 54.8239 47.7264 55.2254C47.7264 55.5225 47.9071 55.6677 48.158 55.6677C48.478 55.6677 48.7757 55.4235 48.7757 55.0916V54.6546ZM52.4437 56.0644L52.4143 55.6101H52.3969C52.2162 55.9534 51.9124 56.1287 51.488 56.1287C50.8054 56.1287 50.3 55.5285 50.3 54.6841C50.3 53.7988 50.8241 53.1752 51.5396 53.1752C51.9184 53.1752 52.1868 53.3031 52.3381 53.5599H52.3507V51.9353H52.9804V55.3016C52.9804 55.5753 52.987 55.8316 53.0038 56.0644H52.4437ZM52.3507 54.399C52.3507 54.0029 52.0883 53.665 51.6879 53.665C51.2215 53.665 50.9363 54.0785 50.9363 54.6607C50.9363 55.2314 51.2323 55.6221 51.6753 55.6221C52.0709 55.6221 52.3507 55.2782 52.3507 54.8707V54.399ZM56.9732 56.1287C56.1465 56.1287 55.6104 55.5111 55.6104 54.6727C55.6104 53.7988 56.1579 53.1758 57.02 53.1758C57.8358 53.1758 58.3833 53.764 58.3833 54.6264C58.3839 55.5111 57.819 56.1287 56.9732 56.1287ZM56.9966 53.6356C56.5427 53.6356 56.2516 54.0605 56.2516 54.6546C56.2516 55.2374 56.5487 55.6623 56.9906 55.6623C57.4336 55.6623 57.7302 55.208 57.7302 54.6426C57.7314 54.0665 57.4402 53.6356 56.9966 53.6356ZM61.7668 56.0644H61.137V54.4392C61.137 53.9387 60.9449 53.6878 60.5661 53.6878C60.1933 53.6878 59.9376 54.0083 59.9376 54.381V56.0644H59.3078V54.0431C59.3078 53.7928 59.3018 53.5245 59.2844 53.2335H59.8379L59.8673 53.6704H59.8847C60.0534 53.3679 60.3974 53.1752 60.7816 53.1752C61.376 53.1752 61.7668 53.6296 61.7668 54.369V56.0644ZM65.9997 53.7058H65.3075V55.0802C65.3075 55.4301 65.4287 55.6047 65.6737 55.6047C65.7847 55.6047 65.8778 55.5927 65.9528 55.5753L65.9702 56.053C65.8484 56.0998 65.6851 56.1233 65.4822 56.1233C64.9863 56.1233 64.6897 55.8496 64.6897 55.133V53.7058H64.2767V53.2341H64.6897V52.7155L65.3075 52.5289V53.2335H65.9997V53.7058ZM69.3302 56.0644H68.7017V54.4512C68.7017 53.9447 68.5102 53.6884 68.1308 53.6884C67.8048 53.6884 67.5011 53.9098 67.5011 54.3582V56.0644H66.8725V51.9353H67.5011V53.6356H67.5137C67.7118 53.3271 67.9987 53.1752 68.3649 53.1752C68.964 53.1752 69.3302 53.641 69.3302 54.381V56.0644ZM72.7425 54.8005H70.8545C70.8665 55.3364 71.2213 55.6389 71.7466 55.6389C72.0257 55.6389 72.2826 55.5921 72.5096 55.5051L72.6074 55.942C72.3397 56.0584 72.0245 56.1167 71.6577 56.1167C70.7722 56.1167 70.2481 55.5573 70.2481 54.6901C70.2481 53.8222 70.7848 53.1698 71.5869 53.1698C72.3103 53.1698 72.7641 53.7058 72.7641 54.5154C72.7682 54.611 72.7609 54.7066 72.7425 54.8005ZM72.1656 54.3522C72.1656 53.9152 71.9453 53.6068 71.543 53.6068C71.1816 53.6068 70.8959 53.9212 70.8551 54.3522H72.1656Z" fill="white"/>
</g>
</g>
</g>
</g>
<g id="Group 269">
<g id="Page 1">
<g id="Group_3">
<path id="Fill 5" fill-rule="evenodd" clip-rule="evenodd" d="M174 48.0791H98.9999C97.35 48.0791 96 49.4291 96 51.079V69.0791C96 70.7291 97.35 72.0791 98.9999 72.0791H174C175.65 72.0791 177 70.7291 177 69.0791V51.079C177 49.4291 175.65 48.0791 174 48.0791ZM174 48.559C175.389 48.559 176.52 49.6894 176.52 51.079V69.0791C176.52 70.4686 175.389 71.5992 174 71.5992H98.9999C97.6103 71.5992 96.4799 70.4686 96.4799 69.0791V51.079C96.4799 49.6894 97.6103 48.559 98.9999 48.559H174Z" fill="white"/>
<path id="Fill 6" fill-rule="evenodd" clip-rule="evenodd" d="M124.448 54.1397C124.448 54.6425 124.299 55.0428 124.001 55.3413C123.662 55.6964 123.221 55.874 122.678 55.874C122.159 55.874 121.717 55.6941 121.354 55.3339C120.99 54.9735 120.808 54.5266 120.808 53.9937C120.808 53.4605 120.99 53.014 121.354 52.6538C121.717 52.2934 122.159 52.1133 122.678 52.1133C122.936 52.1133 123.183 52.1636 123.417 52.2642C123.652 52.3649 123.84 52.4987 123.981 52.6664L123.664 52.9831C123.426 52.6982 123.098 52.5559 122.678 52.5559C122.299 52.5559 121.972 52.6888 121.695 52.9556C121.419 53.2221 121.28 53.568 121.28 53.9937C121.28 54.4195 121.419 54.7654 121.695 55.0321C121.972 55.2987 122.299 55.4316 122.678 55.4316C123.08 55.4316 123.416 55.2978 123.684 55.0298C123.858 54.855 123.959 54.6122 123.986 54.3004H122.678V53.8681H124.423C124.44 53.9622 124.448 54.0524 124.448 54.1397Z" fill="#FFFFFE"/>
<path id="Fill 7" fill-rule="evenodd" clip-rule="evenodd" d="M124.45 54.1413H124.428C124.428 54.64 124.281 55.0337 123.987 55.328L123.987 55.3282H123.987C123.652 55.679 123.218 55.854 122.68 55.8542C122.165 55.854 121.73 55.6769 121.37 55.3203C121.01 54.9635 120.831 54.5235 120.831 53.9953C120.831 53.4669 121.01 53.0271 121.37 52.6705C121.73 52.3137 122.165 52.1364 122.68 52.1362C122.935 52.1362 123.179 52.1859 123.411 52.2854C123.642 52.385 123.828 52.5169 123.966 52.6816L123.982 52.668L123.967 52.6528L123.651 52.9695L123.666 52.9847L123.682 52.9708C123.44 52.681 123.104 52.5357 122.68 52.5361C122.296 52.5359 121.962 52.6716 121.682 52.9418C121.401 53.2121 121.26 53.5651 121.261 53.9953C121.26 54.4255 121.401 54.7785 121.682 55.0491C121.962 55.319 122.296 55.4547 122.68 55.4545C123.087 55.4547 123.429 55.3184 123.701 55.0463C123.879 54.8675 123.982 54.6191 124.009 54.3039L124.011 54.2806H122.701V53.891H124.425V53.8696L124.403 53.8735C124.42 53.9663 124.428 54.0553 124.428 54.1413H124.471C124.471 54.0525 124.463 53.9612 124.445 53.8658L124.442 53.8483H122.659V54.3233H123.987V54.302L123.966 54.3003C123.939 54.6086 123.84 54.8457 123.67 55.0162C123.406 55.2802 123.077 55.4116 122.68 55.4118C122.306 55.4116 121.985 55.2812 121.712 55.0183C121.44 54.7554 121.304 54.4166 121.303 53.9953C121.304 53.5741 121.44 53.2352 121.712 52.9725C121.985 52.7094 122.306 52.579 122.68 52.5788C123.094 52.579 123.415 52.7185 123.649 52.9983L123.664 53.0162L124.011 52.669L123.998 52.6541C123.855 52.4836 123.664 52.3479 123.428 52.2461C123.19 52.1445 122.941 52.0933 122.68 52.0935C122.155 52.0931 121.707 52.276 121.34 52.6402C120.973 53.0041 120.788 53.4573 120.788 53.9953C120.788 54.5331 120.973 54.9865 121.34 55.3506C121.707 55.7147 122.155 55.8971 122.68 55.8969C123.227 55.8971 123.676 55.7172 124.018 55.3576L124.003 55.3429L124.018 55.3581C124.32 55.0553 124.471 54.6481 124.471 54.1413H124.45Z" fill="#FFFFFE"/>
<path id="Fill 8" fill-rule="evenodd" clip-rule="evenodd" d="M127.221 52.6348H125.581V53.7762H127.06V54.2086H125.581V55.35H127.221V55.7924H125.119V52.1924H127.221V52.6348Z" fill="#FFFFFE"/>
<path id="Fill 9" fill-rule="evenodd" clip-rule="evenodd" d="M127.213 52.6363V52.615H125.552V53.7991H127.03V54.1888H125.552V55.3729H127.191V55.7726H125.132V52.2153H127.191V52.6363H127.213V52.615V52.6363H127.234V52.1726H125.09V55.8153H127.234V55.3303H125.594V54.2315H127.073V53.7564H125.594V52.6577H127.234V52.6363H127.213Z" fill="#FFFFFE"/>
<path id="Fill 10" fill-rule="evenodd" clip-rule="evenodd" d="M129.168 55.7924H128.705V52.6348H127.7V52.1924H130.174V52.6348H129.168V55.7924Z" fill="#FFFFFE"/>
<path id="Fill 11" fill-rule="evenodd" clip-rule="evenodd" d="M129.17 55.794V55.7726H128.728V52.615H127.723V52.2153H130.154V52.615H129.149V55.794H129.17V55.7726V55.794H129.191V52.6577H130.197V52.1726H127.68V52.6577H128.686V55.8153H129.191V55.794H129.17Z" fill="#FFFFFE"/>
<path id="Fill 12" fill-rule="evenodd" clip-rule="evenodd" d="M131.962 55.7924H132.424V52.1924H131.962V55.7924Z" fill="#FFFFFE"/>
<path id="Fill 13" fill-rule="evenodd" clip-rule="evenodd" d="M131.963 55.794H131.984V52.2153H132.404V55.7726H131.963V55.794H131.984H131.963V55.8153H132.447V52.1726H131.942V55.8153H131.963V55.794Z" fill="#FFFFFE"/>
<path id="Fill 14" fill-rule="evenodd" clip-rule="evenodd" d="M134.478 55.7924H134.015V52.6348H133.01V52.1924H135.483V52.6348H134.478V55.7924Z" fill="#FFFFFE"/>
<path id="Fill 15" fill-rule="evenodd" clip-rule="evenodd" d="M134.479 55.794V55.7726H134.038V52.615H133.033V52.2153H135.464V52.615H134.458V55.794H134.479V55.7726V55.794H134.501V52.6577H135.506V52.1726H132.99V52.6577H133.995V55.8153H134.501V55.794H134.479Z" fill="#FFFFFE"/>
<path id="Fill 16" fill-rule="evenodd" clip-rule="evenodd" d="M137.866 55.027C138.133 55.297 138.459 55.4316 138.844 55.4316C139.23 55.4316 139.556 55.297 139.822 55.027C140.089 54.7573 140.222 54.4126 140.222 53.9937C140.222 53.5748 140.089 53.2302 139.822 52.9605C139.556 52.6905 139.23 52.5559 138.844 52.5559C138.459 52.5559 138.133 52.6905 137.866 52.9605C137.6 53.2302 137.467 53.5748 137.467 53.9937C137.467 54.4126 137.6 54.7573 137.866 55.027ZM140.164 55.3285C139.81 55.6924 139.37 55.874 138.844 55.874C138.318 55.874 137.878 55.6924 137.525 55.3285C137.171 54.9649 136.994 54.52 136.994 53.9937C136.994 53.4675 137.171 53.0226 137.525 52.6589C137.878 52.2951 138.318 52.1133 138.844 52.1133C139.367 52.1133 139.806 52.2959 140.162 52.6613C140.517 53.0266 140.695 53.4707 140.695 53.9937C140.695 54.52 140.518 54.9649 140.164 55.3285Z" fill="#FFFFFE"/>
<path id="Fill 17" fill-rule="evenodd" clip-rule="evenodd" d="M137.868 55.0286L137.853 55.0437C138.123 55.3173 138.455 55.4547 138.846 55.4545C139.236 55.4547 139.569 55.3173 139.839 55.0437C140.11 54.7699 140.245 54.4187 140.245 53.9953C140.245 53.5719 140.11 53.2207 139.839 52.9471C139.569 52.6733 139.236 52.5359 138.846 52.5361C138.455 52.5359 138.123 52.6733 137.853 52.9471C137.583 53.2207 137.447 53.5719 137.447 53.9953C137.447 54.4187 137.583 54.7699 137.853 55.0437L137.868 55.0286L137.883 55.0136C137.621 54.7477 137.49 54.4097 137.49 53.9953C137.49 53.5809 137.621 53.2429 137.883 52.977C138.146 52.7111 138.465 52.579 138.846 52.5788C139.226 52.579 139.546 52.7111 139.809 52.977C140.071 53.2429 140.202 53.5809 140.202 53.9953C140.202 54.4097 140.071 54.7477 139.809 55.0136C139.546 55.2795 139.226 55.4116 138.846 55.4118C138.465 55.4116 138.146 55.2795 137.883 55.0136L137.868 55.0286ZM140.166 55.3301L140.151 55.3152C139.8 55.6752 139.367 55.854 138.846 55.8542C138.324 55.854 137.891 55.6752 137.542 55.3152C137.191 54.9552 137.018 54.5169 137.017 53.9953C137.018 53.4738 137.191 53.0354 137.542 52.6754C137.891 52.3154 138.325 52.1364 138.846 52.1362C139.364 52.1364 139.796 52.3163 140.148 52.6778C140.5 53.0395 140.675 53.4772 140.675 53.9953C140.675 54.5169 140.5 54.9552 140.151 55.3152L140.166 55.3301L140.181 55.345C140.538 54.9778 140.718 54.5262 140.718 53.9953C140.718 53.4676 140.538 53.0169 140.179 52.6481C139.82 52.2787 139.374 52.0931 138.846 52.0935C138.315 52.0931 137.868 52.2779 137.511 52.6458C137.153 53.0128 136.974 53.4644 136.975 53.9953C136.974 54.5262 137.153 54.9778 137.511 55.345C137.868 55.7129 138.315 55.8971 138.846 55.8969C139.377 55.8971 139.824 55.7129 140.181 55.345L140.166 55.3301Z" fill="#FFFFFE"/>
<path id="Fill 18" fill-rule="evenodd" clip-rule="evenodd" d="M141.345 55.7924V52.1924H141.908L143.658 54.993H143.678L143.658 54.299V52.1924H144.12V55.7924H143.638L141.807 52.8563H141.787L141.807 53.55V55.7924H141.345Z" fill="#FFFFFE"/>
<path id="Fill 19" fill-rule="evenodd" clip-rule="evenodd" d="M141.347 55.794H141.368V52.2153H141.898L143.647 55.0159H143.701L143.68 54.3004V52.2153H144.101V55.7726H143.651L141.821 52.8365H141.767L141.787 53.5518V55.7726H141.347V55.794H141.368H141.347V55.8153H141.83V53.5514L141.81 52.8572L141.789 52.8578V52.8792H141.797L143.627 55.8153H144.143V52.1726H143.638V54.301L143.658 54.995L143.679 54.9946V54.973H143.671L141.921 52.1726H141.325V55.8153H141.347V55.794Z" fill="#FFFFFE"/>
<path id="Fill 20" fill-rule="evenodd" clip-rule="evenodd" d="M160.157 65.9954H161.276V58.4947H160.157V65.9954ZM170.241 61.1967L168.958 64.4487H168.919L167.587 61.1967H166.381L168.379 65.7417L167.24 68.27H168.408L171.486 61.1967H170.241ZM163.892 65.1435C163.525 65.1435 163.014 64.9602 163.014 64.5065C163.014 63.9276 163.65 63.7056 164.2 63.7056C164.693 63.7056 164.924 63.8117 165.223 63.9566C165.136 64.6512 164.538 65.1435 163.892 65.1435ZM164.027 61.0326C163.216 61.0326 162.377 61.3896 162.029 62.1809L163.023 62.596C163.235 62.1809 163.631 62.0458 164.046 62.0458C164.625 62.0458 165.214 62.3932 165.223 63.0108V63.0881C165.021 62.9722 164.586 62.7985 164.056 62.7985C162.984 62.7985 161.894 63.3872 161.894 64.4873C161.894 65.4909 162.772 66.1373 163.757 66.1373C164.509 66.1373 164.924 65.7997 165.185 65.4041H165.223V65.983H166.304V63.1073C166.304 61.7757 165.31 61.0326 164.027 61.0326ZM157.108 62.1098H155.516V59.5386H157.108C157.945 59.5386 158.42 60.2315 158.42 60.8241C158.42 61.4054 157.945 62.1098 157.108 62.1098ZM157.079 58.4947H154.396V65.9954H155.516V63.1536H157.079C158.32 63.1536 159.54 62.2552 159.54 60.8241C159.54 59.3931 158.32 58.4947 157.079 58.4947ZM142.45 65.1448C141.677 65.1448 141.029 64.4971 141.029 63.6079C141.029 62.7091 141.677 62.0516 142.45 62.0516C143.214 62.0516 143.813 62.7091 143.813 63.6079C143.813 64.4971 143.214 65.1448 142.45 65.1448ZM143.736 61.6167H143.697C143.446 61.3171 142.962 61.0465 142.353 61.0465C141.078 61.0465 139.908 62.1677 139.908 63.6079C139.908 65.0385 141.078 66.1501 142.353 66.1501C142.962 66.1501 143.446 65.8795 143.697 65.5701H143.736V65.9376C143.736 66.9139 143.214 67.4358 142.373 67.4358C141.687 67.4358 141.261 66.9429 141.087 66.5272L140.111 66.9331C140.391 67.6097 141.136 68.4411 142.373 68.4411C143.687 68.4411 144.799 67.6678 144.799 65.7829V61.201H143.736V61.6167ZM145.572 65.9954H146.694V58.4945H145.572V65.9954ZM148.347 63.521C148.318 62.5349 149.11 62.0324 149.68 62.0324C150.125 62.0324 150.502 62.2547 150.628 62.5738L148.347 63.521ZM151.826 62.6702C151.614 62.1 150.966 61.0465 149.642 61.0465C148.327 61.0465 147.235 62.0806 147.235 63.5983C147.235 65.0289 148.318 66.1501 149.767 66.1501C150.937 66.1501 151.614 65.4348 151.894 65.0193L151.024 64.4393C150.734 64.8646 150.338 65.1448 149.767 65.1448C149.197 65.1448 148.791 64.8838 148.53 64.3717L151.942 62.9602L151.826 62.6702ZM124.641 61.8294V62.912H127.232C127.155 63.521 126.952 63.9656 126.642 64.275C126.265 64.6518 125.676 65.0675 124.641 65.0675C123.046 65.0675 121.8 63.7818 121.8 62.1869C121.8 60.5922 123.046 59.3064 124.641 59.3064C125.502 59.3064 126.13 59.6447 126.594 60.0798L127.358 59.316C126.71 58.6974 125.85 58.2239 124.641 58.2239C122.457 58.2239 120.62 60.0025 120.62 62.1869C120.62 64.3717 122.457 66.1501 124.641 66.1501C125.821 66.1501 126.71 65.7634 127.406 65.0385C128.121 64.3232 128.344 63.3179 128.344 62.5059C128.344 62.2547 128.324 62.0228 128.286 61.8294H124.641ZM131.289 65.1448C130.515 65.1448 129.849 64.5069 129.849 63.5983C129.849 62.6798 130.515 62.0516 131.289 62.0516C132.062 62.0516 132.729 62.6798 132.729 63.5983C132.729 64.5069 132.062 65.1448 131.289 65.1448ZM131.289 61.0465C129.877 61.0465 128.727 62.1192 128.727 63.5983C128.727 65.0675 129.877 66.1501 131.289 66.1501C132.7 66.1501 133.85 65.0675 133.85 63.5983C133.85 62.1192 132.7 61.0465 131.289 61.0465ZM136.877 65.1448C136.103 65.1448 135.437 64.5069 135.437 63.5983C135.437 62.6798 136.103 62.0516 136.877 62.0516C137.65 62.0516 138.317 62.6798 138.317 63.5983C138.317 64.5069 137.65 65.1448 136.877 65.1448ZM136.877 61.0465C135.465 61.0465 134.315 62.1192 134.315 63.5983C134.315 65.0675 135.465 66.1501 136.877 66.1501C138.288 66.1501 139.438 65.0675 139.438 63.5983C139.438 62.1192 138.288 61.0465 136.877 61.0465Z" fill="#FFFFFE"/>
<g id="Group 23">
<mask id="mask0_1_430" style="mask-type:alpha" maskUnits="userSpaceOnUse" x="101" y="52" width="9" height="16">
<g id="mask 4">
<path id="Vector_5" d="M102.304 67.4351L102.26 67.3922C102.085 67.2076 101.982 66.9208 101.982 66.5493V66.6368V53.3671C101.982 53.366 101.982 53.3649 101.982 53.3639C101.982 53.3649 101.982 53.3662 101.982 53.3673V53.455C101.982 53.053 102.102 52.7497 102.304 52.5681L109.738 60.0018L102.304 67.4351ZM101.982 53.3632C101.982 53.3276 101.983 53.2924 101.985 53.2582C101.983 53.2924 101.982 53.3276 101.982 53.3632Z" fill="white"/>
</g>
</mask>
<g mask="url(#mask0_1_430)">
<path id="Clip 22" d="M102.304 67.4351L102.26 67.3922C102.085 67.2076 101.982 66.9208 101.982 66.5493V66.6368V53.3671C101.982 53.366 101.982 53.3649 101.982 53.3639C101.982 53.3649 101.982 53.3662 101.982 53.3673V53.455C101.982 53.053 102.102 52.7497 102.304 52.5681L109.738 60.0018L102.304 67.4351ZM101.982 53.3632C101.982 53.3276 101.983 53.2924 101.985 53.2582C101.983 53.2924 101.982 53.3276 101.982 53.3632Z" fill="#00D4FF"/>
</g>
</g>
<g id="Group 26">
<mask id="mask1_1_430" style="mask-type:alpha" maskUnits="userSpaceOnUse" x="109" y="57" width="7" height="6">
<g id="mask 6">
<path id="Vector_6" d="M112.212 62.5767L112.268 62.5445L115.204 60.8765C115.474 60.7229 115.657 60.5381 115.753 60.342C115.657 60.5381 115.474 60.7231 115.204 60.8767L112.268 62.5449L112.212 62.5767ZM112.212 62.4888L109.734 60.0101L112.212 57.5317L115.204 59.2315C115.584 59.4474 115.797 59.7255 115.833 60.0097C115.833 60.0101 115.833 60.0106 115.833 60.011C115.797 60.2946 115.584 60.5729 115.204 60.7888L112.212 62.4888Z" fill="white"/>
</g>
</mask>
<g mask="url(#mask1_1_430)">
<path id="Clip 25" d="M112.212 62.5767L112.268 62.5445L115.204 60.8765C115.474 60.7229 115.657 60.5381 115.753 60.342C115.657 60.5381 115.474 60.7231 115.204 60.8767L112.268 62.5449L112.212 62.5767ZM112.212 62.4888L109.734 60.0101L112.212 57.5317L115.204 59.2315C115.584 59.4474 115.797 59.7255 115.833 60.0097C115.833 60.0101 115.833 60.0106 115.833 60.011C115.797 60.2946 115.584 60.5729 115.204 60.7888L112.212 62.4888Z" fill="#FFCC00"/>
</g>
</g>
<g id="Group 29">
<mask id="mask2_1_430" style="mask-type:alpha" maskUnits="userSpaceOnUse" x="102" y="60" width="11" height="8">
<g id="mask 8">
<path id="Vector_7" d="M102.839 67.7199C102.632 67.7199 102.451 67.6523 102.309 67.5249L102.31 67.5247C102.451 67.6523 102.632 67.7199 102.84 67.7199C102.871 67.7199 102.904 67.7184 102.937 67.7152C102.904 67.7184 102.871 67.7199 102.839 67.7199ZM102.84 67.6322C102.632 67.6322 102.451 67.5646 102.31 67.4372L102.309 67.4369L109.743 60.0037L112.221 62.4823L103.512 67.4308C103.271 67.5675 103.043 67.6322 102.84 67.6322ZM102.307 67.5227C102.294 67.511 102.281 67.4986 102.269 67.4856L102.307 67.5227Z" fill="white"/>
</g>
</mask>
<g mask="url(#mask2_1_430)">
<path id="Fill 27" fill-rule="evenodd" clip-rule="evenodd" d="M102.839 67.7199C102.632 67.7199 102.451 67.6523 102.309 67.5249L102.31 67.5247C102.451 67.6523 102.632 67.7199 102.84 67.7199C102.871 67.7199 102.904 67.7184 102.937 67.7152C102.904 67.7184 102.871 67.7199 102.839 67.7199ZM102.84 67.6322C102.632 67.6322 102.451 67.5646 102.31 67.4372L102.309 67.4369L109.743 60.0037L112.221 62.4823L103.512 67.4308C103.271 67.5675 103.043 67.6322 102.84 67.6322ZM102.307 67.5227C102.294 67.511 102.281 67.4986 102.269 67.4856L102.307 67.5227Z" fill="url(#paint0_linear_1_430)"/>
</g>
</g>
<g id="Group 32">
<mask id="mask3_1_430" style="mask-type:alpha" maskUnits="userSpaceOnUse" x="102" y="52" width="11" height="9">
<g id="mask 11">
<path id="Vector_8" d="M109.742 60.0075L102.308 52.5738C102.449 52.4464 102.631 52.379 102.838 52.379C103.041 52.379 103.27 52.4438 103.511 52.5808L112.22 57.5291L109.742 60.0075ZM112.276 57.4732L103.511 52.4933C103.27 52.3561 103.041 52.2913 102.838 52.2913C102.836 52.2913 102.835 52.2913 102.833 52.2913C102.835 52.2913 102.837 52.2913 102.839 52.2913C103.042 52.2913 103.27 52.3561 103.511 52.4929L112.276 57.4732Z" fill="white"/>
</g>
</mask>
<g mask="url(#mask3_1_430)">
<path id="Clip 31" d="M109.742 60.0075L102.308 52.5738C102.449 52.4464 102.631 52.379 102.838 52.379C103.041 52.379 103.27 52.4438 103.511 52.5808L112.22 57.5291L109.742 60.0075ZM112.276 57.4732L103.511 52.4933C103.27 52.3561 103.041 52.2913 102.838 52.2913C102.836 52.2913 102.835 52.2913 102.833 52.2913C102.835 52.2913 102.837 52.2913 102.839 52.2913C103.042 52.2913 103.27 52.3561 103.511 52.4929L112.276 57.4732Z" fill="#00F076"/>
</g>
</g>
<path id="Fill 33" fill-rule="evenodd" clip-rule="evenodd" d="M102.931 67.7195C103.109 67.7022 103.303 67.638 103.506 67.5225L112.215 62.5745L103.506 67.5225C103.303 67.6382 103.109 67.7022 102.931 67.7195Z" fill="#0A0B09"/>
<g id="Group 39">
<mask id="mask4_1_430" style="mask-type:alpha" maskUnits="userSpaceOnUse" x="102" y="62" width="11" height="6">
<g id="mask 15">
<path id="Vector_9" d="M102.834 67.7132C102.626 67.7132 102.445 67.6456 102.304 67.518L102.303 67.5182C102.302 67.5175 102.302 67.5169 102.301 67.516L102.263 67.4789C102.261 67.4776 102.26 67.4763 102.259 67.4749L102.304 67.4305C102.445 67.5579 102.626 67.6255 102.834 67.6255C103.037 67.6255 103.265 67.5609 103.506 67.4241L112.215 62.4756L112.271 62.5313L112.214 62.5635L103.506 67.5116C103.302 67.627 103.108 67.6912 102.931 67.7085C102.898 67.7117 102.865 67.7132 102.834 67.7132Z" fill="white"/>
</g>
</mask>
<g mask="url(#mask4_1_430)">
<path id="Clip 38" d="M102.834 67.7132C102.626 67.7132 102.445 67.6456 102.304 67.518L102.303 67.5182C102.302 67.5175 102.302 67.5169 102.301 67.516L102.263 67.4789C102.261 67.4776 102.26 67.4763 102.259 67.4749L102.304 67.4305C102.445 67.5579 102.626 67.6255 102.834 67.6255C103.037 67.6255 103.265 67.5609 103.506 67.4241L112.215 62.4756L112.271 62.5313L112.214 62.5635L103.506 67.5116C103.302 67.627 103.108 67.6912 102.931 67.7085C102.898 67.7117 102.865 67.7132 102.834 67.7132Z" fill="#D73A48"/>
</g>
</g>
<path id="Fill 40" fill-rule="evenodd" clip-rule="evenodd" d="M102.26 67.4716C102.085 67.2867 101.982 67.0002 101.982 66.6286V66.6284C101.982 67.0002 102.085 67.2865 102.26 67.4713C102.26 67.4713 102.26 67.4713 102.26 67.4713L102.26 67.4716Z" fill="#0A0B09"/>
<g id="Group 46">
<mask id="mask5_1_430" style="mask-type:alpha" maskUnits="userSpaceOnUse" x="102" y="67" width="1" height="1">
<g id="mask 19">
<path id="Vector_10" d="M102.259 67.484C102.259 67.484 102.259 67.484 102.259 67.484L102.304 67.4392L102.304 67.4394L102.259 67.484Z" fill="white"/>
</g>
</mask>
<g mask="url(#mask5_1_430)">
<path id="Fill 44" fill-rule="evenodd" clip-rule="evenodd" d="M102.259 67.484C102.259 67.484 102.259 67.484 102.259 67.484L102.304 67.4392L102.304 67.4394L102.259 67.484Z" fill="url(#paint1_linear_1_430)"/>
</g>
</g>
<path id="Fill 47" fill-rule="evenodd" clip-rule="evenodd" d="M115.756 60.3351C115.809 60.2269 115.835 60.1155 115.835 60.0041C115.835 60.0039 115.835 60.0037 115.835 60.0037C115.835 60.1151 115.809 60.2269 115.756 60.3351Z" fill="#FFCC00"/>
<path id="Fill 51" fill-rule="evenodd" clip-rule="evenodd" d="M115.84 60.0067C115.84 60.0067 115.84 60.0065 115.84 60.0063C115.84 59.6926 115.63 59.3789 115.211 59.1408L112.275 57.4726H112.275L112.275 57.4724L115.211 59.1405C115.63 59.3787 115.84 59.6928 115.84 60.0067Z" fill="#3A3B38"/>
<g id="Group 54">
<mask id="mask6_1_430" style="mask-type:alpha" maskUnits="userSpaceOnUse" x="112" y="57" width="4" height="4">
<g id="mask 24">
<path id="Vector_11" d="M115.836 60.0061C115.801 59.7218 115.588 59.4438 115.207 59.2278L112.216 57.5281L112.272 57.4724H112.272L115.207 59.1405C115.626 59.3787 115.836 59.6924 115.836 60.0061Z" fill="white"/>
</g>
</mask>
<g mask="url(#mask6_1_430)">
<path id="Clip 53" d="M115.836 60.0061C115.801 59.7218 115.588 59.4438 115.207 59.2278L112.216 57.5281L112.272 57.4724H112.272L115.207 59.1405C115.626 59.3787 115.836 59.6924 115.836 60.0061Z" fill="#FFCC00"/>
</g>
</g>
<path id="Fill 55" fill-rule="evenodd" clip-rule="evenodd" d="M101.992 53.2537C102.03 52.6451 102.364 52.2938 102.835 52.2913C102.629 52.2925 102.451 52.3602 102.311 52.4863H102.31L102.308 52.4882C102.294 52.5015 102.28 52.5153 102.266 52.5298C102.111 52.6942 102.012 52.9396 101.992 53.2537Z" fill="#3A3B38"/>
<g id="Group 61">
<mask id="mask7_1_430" style="mask-type:alpha" maskUnits="userSpaceOnUse" x="102" y="52" width="11" height="6">
<g id="mask 28">
<path id="Vector_12" d="M112.215 57.5291L103.506 52.5808C103.265 52.4438 103.036 52.379 102.833 52.379C102.625 52.379 102.444 52.4464 102.303 52.5738L102.259 52.5298C102.273 52.5153 102.287 52.5015 102.301 52.4882C102.302 52.4876 102.303 52.4869 102.304 52.4863C102.444 52.3602 102.622 52.2925 102.828 52.2913C102.829 52.2913 102.831 52.2913 102.833 52.2913C103.036 52.2913 103.265 52.3561 103.506 52.4933L112.271 57.4732L112.271 57.4734L112.215 57.5291Z" fill="white"/>
</g>
</mask>
<g mask="url(#mask7_1_430)">
<path id="Clip 60" d="M112.215 57.5291L103.506 52.5808C103.265 52.4438 103.036 52.379 102.833 52.379C102.625 52.379 102.444 52.4464 102.303 52.5738L102.259 52.5298C102.273 52.5153 102.287 52.5015 102.301 52.4882C102.302 52.4876 102.303 52.4869 102.304 52.4863C102.444 52.3602 102.622 52.2925 102.828 52.2913C102.829 52.2913 102.831 52.2913 102.833 52.2913C103.036 52.2913 103.265 52.3561 103.506 52.4933L112.271 57.4732L112.271 57.4734L112.215 57.5291Z" fill="#00F076"/>
</g>
</g>
</g>
</g>
</g>
</g>
<defs>
<linearGradient id="paint0_linear_1_430" x1="110.9" y1="62.3703" x2="99.9678" y2="73.3022" gradientUnits="userSpaceOnUse">
<stop stop-color="#DC3D46"/>
<stop offset="1" stop-color="#B12359"/>
</linearGradient>
<linearGradient id="paint1_linear_1_430" x1="104.098" y1="66.1859" x2="101.232" y2="69.0654" gradientUnits="userSpaceOnUse">
<stop stop-color="#CE333C"/>
<stop offset="1" stop-color="#9A2450"/>
</linearGradient>
</defs>
</svg>
